G04 #@! TF.GenerationSoftware,KiCad,Pcbnew,(5.1.5)-3*
G04 #@! TF.CreationDate,2020-05-23T13:54:13+05:30*
G04 #@! TF.ProjectId,555 square wave,35353520-7371-4756-9172-652077617665,rev?*
G04 #@! TF.SameCoordinates,Original*
G04 #@! TF.FileFunction,Copper,L2,Bot*
G04 #@! TF.FilePolarity,Positive*
%FSLAX46Y46*%
G04 Gerber Fmt 4.6, Leading zero omitted, Abs format (unit mm)*
G04 Created by KiCad (PCBNEW (5.1.5)-3) date 2020-05-23 13:54:13*
%MOMM*%
%LPD*%
G04 APERTURE LIST*
%ADD10C,1.600000*%
%ADD11O,1.350000X1.350000*%
%ADD12R,1.350000X1.350000*%
%ADD13O,1.600000X1.600000*%
%ADD14C,1.260000*%
%ADD15C,1.500000*%
%ADD16C,0.250000*%
G04 APERTURE END LIST*
D10*
X138684000Y-102616000D03*
X142184000Y-102616000D03*
D11*
X120428000Y-90932000D03*
D12*
X122428000Y-90932000D03*
X138176000Y-90932000D03*
D11*
X140176000Y-90932000D03*
D13*
X140716000Y-94996000D03*
D10*
X120396000Y-94996000D03*
D14*
X121920000Y-105156000D03*
X119380000Y-102616000D03*
X121920000Y-100076000D03*
D15*
X134874000Y-99961000D03*
X127254000Y-99961000D03*
X134874000Y-101731000D03*
X127254000Y-101731000D03*
X134874000Y-103501000D03*
X127254000Y-103501000D03*
X134874000Y-105271000D03*
X127254000Y-105271000D03*
D16*
X137799000Y-103501000D02*
X138684000Y-102616000D01*
X134874000Y-103501000D02*
X137799000Y-103501000D01*
X129024000Y-103501000D02*
X127254000Y-101731000D01*
X134874000Y-103501000D02*
X129024000Y-103501000D01*
X127770001Y-106346001D02*
X129032000Y-105084002D01*
X121920000Y-105156000D02*
X123110001Y-106346001D01*
X123110001Y-106346001D02*
X127770001Y-106346001D01*
X129032000Y-103509000D02*
X129024000Y-103501000D01*
X129032000Y-105084002D02*
X129032000Y-103509000D01*
X120428000Y-91886594D02*
X120997406Y-92456000D01*
X120428000Y-90932000D02*
X120428000Y-91886594D01*
X137577000Y-92456000D02*
X138176000Y-91857000D01*
X138176000Y-91857000D02*
X138176000Y-90932000D01*
X120997406Y-92456000D02*
X137577000Y-92456000D01*
X137577000Y-98009000D02*
X142184000Y-102616000D01*
X137577000Y-92456000D02*
X137577000Y-98009000D01*
X139529000Y-105271000D02*
X142184000Y-102616000D01*
X134874000Y-105271000D02*
X139529000Y-105271000D01*
X134124001Y-99211001D02*
X134874000Y-99961000D01*
X133798999Y-98885999D02*
X134124001Y-99211001D01*
X126737999Y-98885999D02*
X133798999Y-98885999D01*
X126178999Y-99444999D02*
X126737999Y-98885999D01*
X126178999Y-105256659D02*
X126178999Y-99444999D01*
X126193340Y-105271000D02*
X126178999Y-105256659D01*
X127254000Y-105271000D02*
X126193340Y-105271000D01*
M02*
