G04 #@! TF.GenerationSoftware,KiCad,Pcbnew,(5.1.5)-3*
G04 #@! TF.CreationDate,2020-05-23T13:54:13+05:30*
G04 #@! TF.ProjectId,555 square wave,35353520-7371-4756-9172-652077617665,rev?*
G04 #@! TF.SameCoordinates,Original*
G04 #@! TF.FileFunction,Legend,Top*
G04 #@! TF.FilePolarity,Positive*
%FSLAX46Y46*%
G04 Gerber Fmt 4.6, Leading zero omitted, Abs format (unit mm)*
G04 Created by KiCad (PCBNEW (5.1.5)-3) date 2020-05-23 13:54:13*
%MOMM*%
%LPD*%
G04 APERTURE LIST*
%ADD10C,0.150000*%
%ADD11C,0.300000*%
%ADD12C,0.120000*%
G04 APERTURE END LIST*
D10*
X138335000Y-93035380D02*
X138239761Y-92987761D01*
X138192142Y-92940142D01*
X138144523Y-92844904D01*
X138144523Y-92559190D01*
X138192142Y-92463952D01*
X138239761Y-92416333D01*
X138335000Y-92368714D01*
X138477857Y-92368714D01*
X138573095Y-92416333D01*
X138620714Y-92463952D01*
X138668333Y-92559190D01*
X138668333Y-92844904D01*
X138620714Y-92940142D01*
X138573095Y-92987761D01*
X138477857Y-93035380D01*
X138335000Y-93035380D01*
X139525476Y-92368714D02*
X139525476Y-93035380D01*
X139096904Y-92368714D02*
X139096904Y-92892523D01*
X139144523Y-92987761D01*
X139239761Y-93035380D01*
X139382619Y-93035380D01*
X139477857Y-92987761D01*
X139525476Y-92940142D01*
X139858809Y-92368714D02*
X140239761Y-92368714D01*
X140001666Y-92035380D02*
X140001666Y-92892523D01*
X140049285Y-92987761D01*
X140144523Y-93035380D01*
X140239761Y-93035380D01*
X140573095Y-92368714D02*
X140573095Y-93368714D01*
X140573095Y-92416333D02*
X140668333Y-92368714D01*
X140858809Y-92368714D01*
X140954047Y-92416333D01*
X141001666Y-92463952D01*
X141049285Y-92559190D01*
X141049285Y-92844904D01*
X141001666Y-92940142D01*
X140954047Y-92987761D01*
X140858809Y-93035380D01*
X140668333Y-93035380D01*
X140573095Y-92987761D01*
X141906428Y-92368714D02*
X141906428Y-93035380D01*
X141477857Y-92368714D02*
X141477857Y-92892523D01*
X141525476Y-92987761D01*
X141620714Y-93035380D01*
X141763571Y-93035380D01*
X141858809Y-92987761D01*
X141906428Y-92940142D01*
X142239761Y-92368714D02*
X142620714Y-92368714D01*
X142382619Y-92035380D02*
X142382619Y-92892523D01*
X142430238Y-92987761D01*
X142525476Y-93035380D01*
X142620714Y-93035380D01*
X123698047Y-89352428D02*
X124459952Y-89352428D01*
X124079000Y-89733380D02*
X124079000Y-88971476D01*
D11*
X136935981Y-107061000D02*
G75*
G03X136935981Y-107061000I-283981J0D01*
G01*
D12*
X144554000Y-102616000D02*
G75*
G03X144554000Y-102616000I-4120000J0D01*
G01*
X123488000Y-89872000D02*
X123488000Y-90932000D01*
X122428000Y-89872000D02*
X123488000Y-89872000D01*
X121428000Y-89872000D02*
X121428000Y-91992000D01*
X121428000Y-91992000D02*
X119368000Y-91992000D01*
X121428000Y-89872000D02*
X119368000Y-89872000D01*
X119368000Y-89872000D02*
X119368000Y-91992000D01*
X141236000Y-91992000D02*
X141236000Y-89872000D01*
X139176000Y-91992000D02*
X141236000Y-91992000D01*
X139176000Y-89872000D02*
X141236000Y-89872000D01*
X139176000Y-91992000D02*
X139176000Y-89872000D01*
X138176000Y-91992000D02*
X137116000Y-91992000D01*
X137116000Y-91992000D02*
X137116000Y-90932000D01*
X139676000Y-94996000D02*
X135176000Y-94996000D01*
X121436000Y-94996000D02*
X125936000Y-94996000D01*
X135176000Y-93276000D02*
X125936000Y-93276000D01*
X135176000Y-96716000D02*
X135176000Y-93276000D01*
X125936000Y-96716000D02*
X135176000Y-96716000D01*
X125936000Y-93276000D02*
X125936000Y-96716000D01*
X125850000Y-102616000D02*
G75*
G03X125850000Y-102616000I-3930000J0D01*
G01*
X132750666Y-106521000D02*
X136124000Y-106521000D01*
X132750666Y-106161000D02*
X132750666Y-106521000D01*
X129377334Y-106161000D02*
X132750666Y-106161000D01*
X129377334Y-106521000D02*
X129377334Y-106161000D01*
X126004000Y-106520999D02*
X129377334Y-106521000D01*
X126004000Y-98711000D02*
X126004000Y-106520999D01*
X136124000Y-98711001D02*
X126004000Y-98711000D01*
X136124000Y-106521000D02*
X136124000Y-98711001D01*
D10*
X140267333Y-97723142D02*
X140219714Y-97770761D01*
X140076857Y-97818380D01*
X139981619Y-97818380D01*
X139838761Y-97770761D01*
X139743523Y-97675523D01*
X139695904Y-97580285D01*
X139648285Y-97389809D01*
X139648285Y-97246952D01*
X139695904Y-97056476D01*
X139743523Y-96961238D01*
X139838761Y-96866000D01*
X139981619Y-96818380D01*
X140076857Y-96818380D01*
X140219714Y-96866000D01*
X140267333Y-96913619D01*
X141219714Y-97818380D02*
X140648285Y-97818380D01*
X140934000Y-97818380D02*
X140934000Y-96818380D01*
X140838761Y-96961238D01*
X140743523Y-97056476D01*
X140648285Y-97104095D01*
X140267333Y-102973142D02*
X140219714Y-103020761D01*
X140076857Y-103068380D01*
X139981619Y-103068380D01*
X139838761Y-103020761D01*
X139743523Y-102925523D01*
X139695904Y-102830285D01*
X139648285Y-102639809D01*
X139648285Y-102496952D01*
X139695904Y-102306476D01*
X139743523Y-102211238D01*
X139838761Y-102116000D01*
X139981619Y-102068380D01*
X140076857Y-102068380D01*
X140219714Y-102116000D01*
X140267333Y-102163619D01*
X141219714Y-103068380D02*
X140648285Y-103068380D01*
X140934000Y-103068380D02*
X140934000Y-102068380D01*
X140838761Y-102211238D01*
X140743523Y-102306476D01*
X140648285Y-102354095D01*
X123940380Y-91265333D02*
X124654666Y-91265333D01*
X124797523Y-91312952D01*
X124892761Y-91408190D01*
X124940380Y-91551047D01*
X124940380Y-91646285D01*
X124940380Y-90265333D02*
X124940380Y-90836761D01*
X124940380Y-90551047D02*
X123940380Y-90551047D01*
X124083238Y-90646285D01*
X124178476Y-90741523D01*
X124226095Y-90836761D01*
X135568380Y-91265333D02*
X136282666Y-91265333D01*
X136425523Y-91312952D01*
X136520761Y-91408190D01*
X136568380Y-91551047D01*
X136568380Y-91646285D01*
X135663619Y-90836761D02*
X135616000Y-90789142D01*
X135568380Y-90693904D01*
X135568380Y-90455809D01*
X135616000Y-90360571D01*
X135663619Y-90312952D01*
X135758857Y-90265333D01*
X135854095Y-90265333D01*
X135996952Y-90312952D01*
X136568380Y-90884380D01*
X136568380Y-90265333D01*
X130389333Y-92728380D02*
X130056000Y-92252190D01*
X129817904Y-92728380D02*
X129817904Y-91728380D01*
X130198857Y-91728380D01*
X130294095Y-91776000D01*
X130341714Y-91823619D01*
X130389333Y-91918857D01*
X130389333Y-92061714D01*
X130341714Y-92156952D01*
X130294095Y-92204571D01*
X130198857Y-92252190D01*
X129817904Y-92252190D01*
X131341714Y-92728380D02*
X130770285Y-92728380D01*
X131056000Y-92728380D02*
X131056000Y-91728380D01*
X130960761Y-91871238D01*
X130865523Y-91966476D01*
X130770285Y-92014095D01*
X130516333Y-96210380D02*
X130183000Y-95734190D01*
X129944904Y-96210380D02*
X129944904Y-95210380D01*
X130325857Y-95210380D01*
X130421095Y-95258000D01*
X130468714Y-95305619D01*
X130516333Y-95400857D01*
X130516333Y-95543714D01*
X130468714Y-95638952D01*
X130421095Y-95686571D01*
X130325857Y-95734190D01*
X129944904Y-95734190D01*
X131468714Y-96210380D02*
X130897285Y-96210380D01*
X131183000Y-96210380D02*
X131183000Y-95210380D01*
X131087761Y-95353238D01*
X130992523Y-95448476D01*
X130897285Y-95496095D01*
X121324761Y-98008380D02*
X120991428Y-97532190D01*
X120753333Y-98008380D02*
X120753333Y-97008380D01*
X121134285Y-97008380D01*
X121229523Y-97056000D01*
X121277142Y-97103619D01*
X121324761Y-97198857D01*
X121324761Y-97341714D01*
X121277142Y-97436952D01*
X121229523Y-97484571D01*
X121134285Y-97532190D01*
X120753333Y-97532190D01*
X121610476Y-97008380D02*
X121943809Y-98008380D01*
X122277142Y-97008380D01*
X123134285Y-98008380D02*
X122562857Y-98008380D01*
X122848571Y-98008380D02*
X122848571Y-97008380D01*
X122753333Y-97151238D01*
X122658095Y-97246476D01*
X122562857Y-97294095D01*
X119200571Y-103008857D02*
X118886285Y-103228857D01*
X119200571Y-103386000D02*
X118540571Y-103386000D01*
X118540571Y-103134571D01*
X118572000Y-103071714D01*
X118603428Y-103040285D01*
X118666285Y-103008857D01*
X118760571Y-103008857D01*
X118823428Y-103040285D01*
X118854857Y-103071714D01*
X118886285Y-103134571D01*
X118886285Y-103386000D01*
X118540571Y-102820285D02*
X119200571Y-102600285D01*
X118540571Y-102380285D01*
X119200571Y-101814571D02*
X119200571Y-102191714D01*
X119200571Y-102003142D02*
X118540571Y-102003142D01*
X118634857Y-102066000D01*
X118697714Y-102128857D01*
X118729142Y-102191714D01*
X130302095Y-106973380D02*
X130302095Y-107782904D01*
X130349714Y-107878142D01*
X130397333Y-107925761D01*
X130492571Y-107973380D01*
X130683047Y-107973380D01*
X130778285Y-107925761D01*
X130825904Y-107878142D01*
X130873523Y-107782904D01*
X130873523Y-106973380D01*
X131873523Y-107973380D02*
X131302095Y-107973380D01*
X131587809Y-107973380D02*
X131587809Y-106973380D01*
X131492571Y-107116238D01*
X131397333Y-107211476D01*
X131302095Y-107259095D01*
M02*
